<svg width="146" height="36" viewBox="0 0 146 36" fill="none" xmlns="http://www.w3.org/2000/svg">
<path fill-rule="evenodd" clip-rule="evenodd" d="M52.5433 17.0999V23.3999C51.5247 23.7272 50.4212 23.8908 49.4026 23.809C45.0736 23.809 42.3573 21.4363 42.3573 17.509C42.3573 13.5817 45.0736 11.209 49.5724 11.209C51.0154 11.1272 52.4585 11.3726 53.9015 11.8635L54.3259 12.109L55.2596 9.73627L54.8352 9.49082C53.2224 8.83628 51.5247 8.59082 49.8271 8.59082C42.3573 8.59082 38.9619 13.1726 38.9619 17.509C38.8771 19.8817 39.8957 22.1726 41.6782 23.809C43.4608 25.5272 46.0073 26.4272 49.148 26.4272C51.355 26.4272 53.4771 26.0999 55.5143 25.3635H55.7689V17.1817H52.5433V17.0999Z" fill="#54565B"/>
<path d="M64.4268 9H61.2861V26.2636H64.4268V9Z" fill="#54565B"/>
<path fill-rule="evenodd" clip-rule="evenodd" d="M73.5938 23.5636V9H70.4531V26.1818H81.9973V23.5636H73.5938Z" fill="#54565B"/>
<path fill-rule="evenodd" clip-rule="evenodd" d="M89.043 23.5636V18.3273H96.8523V15.7909H89.043V11.5364H97.4465V9H85.9023V26.1818H97.7861V23.5636H89.043Z" fill="#54565B"/>
<path fill-rule="evenodd" clip-rule="evenodd" d="M109.585 12.4364C109.84 12.8455 111.368 17.1818 111.877 18.4909H107.124C107.124 18.4909 109.415 12.8455 109.585 12.4364ZM111.283 9H108.057L101.182 26.2636H104.407L106.444 21.1091H112.811L114.848 26.2636H118.243L111.283 9Z" fill="#54565B"/>
<path fill-rule="evenodd" clip-rule="evenodd" d="M136.493 10.9635C134.625 9.409 131.654 8.59082 128.004 8.59082H122.062V11.209H128.004C130.721 11.209 132.843 11.8635 134.201 12.9272C135.219 14.0726 135.814 15.5454 135.814 17.0181C135.898 18.8181 135.219 20.4545 133.946 21.7635C132.588 23.0726 130.296 23.7272 127.495 23.7272H125.203V15.709H121.978V26.1817H122.232C123.845 26.3454 125.458 26.4272 127.071 26.4272C130.975 26.4272 134.201 25.3635 136.238 23.5635C138.105 21.8454 139.124 19.4726 138.954 17.0181C139.039 14.809 138.105 12.5999 136.493 10.9635Z" fill="#54565B"/>
<path fill-rule="evenodd" clip-rule="evenodd" d="M28.6908 0H28.4362C4.66871 2.12727 1.69778 17.4273 9.4222 22.4182C8.06406 27.9818 9.4222 27.9818 9.4222 27.9818C9.59197 26.3455 9.9315 24.6273 10.3559 22.9909C13.3269 12.0273 20.8815 2.53636 28.4362 0.163636C28.6908 0.245455 28.6908 0.245455 28.6908 0Z" fill="#C5203F"/>
<path fill-rule="evenodd" clip-rule="evenodd" d="M27.1628 3.84555V3.6001L26.9081 3.84555C25.0407 7.52737 24.3616 12.6819 23.0035 16.5274C21.136 21.0274 18.1651 24.3001 13.4116 23.8092V35.0183C13.4116 35.0183 0.848837 29.6183 0.848837 21.0274V4.90919L11.1198 4.00919C11.3744 4.00919 11.3744 4.00919 11.3744 3.76373H0V20.9456C0 30.6001 13.4965 36.0001 13.4965 36.0001C13.4965 36.0001 27.1628 30.5183 27.1628 21.0274V3.84555Z" fill="#C5203F"/>
</svg>
