<svg width="24" height="24" viewBox="0 0 24 24" fill="none" xmlns="http://www.w3.org/2000/svg">
<path fill-rule="evenodd" clip-rule="evenodd" d="M19.0346 3H18.91C7.28364 4.06364 5.83034 11.7136 9.60892 14.2091C8.94456 16.9909 9.60892 16.9909 9.60892 16.9909C9.69197 16.1727 9.85806 15.3136 10.0657 14.4955C11.519 9.01363 15.2145 4.26818 18.91 3.08182C19.0346 3.12273 19.0346 3.12273 19.0346 3Z" fill="#C5203F"/>
<path fill-rule="evenodd" clip-rule="evenodd" d="M18.2873 4.92278V4.80005L18.1627 4.92278C17.2492 6.76368 16.9171 9.34096 16.2527 11.2637C15.3392 13.5137 13.8859 15.15 11.5606 14.9046V20.5091C11.5606 20.5091 5.41523 17.8091 5.41523 13.5137V5.45459L10.4395 5.00459C10.5641 5.00459 10.5641 5.00459 10.5641 4.88187H5V13.4728C5 18.3 11.6021 21 11.6021 21C11.6021 21 18.2873 18.2591 18.2873 13.5137V4.92278Z" fill="#C5203F"/>
</svg>
