<svg width="267" height="44" viewBox="0 0 267 44" fill="none" xmlns="http://www.w3.org/2000/svg">
<path d="M26.66 19.5573L26.5517 19.8371C28.3567 20.6313 32.409 23.781 32.409 30.1257C32.409 36.1002 27.373 42.1199 19.458 42.1199C9.61168 42.1199 6.21826 36.362 6.21826 31.0733C6.21826 24.2955 10.9564 19.7829 10.9564 13.6098C10.9306 11.4265 10.165 9.31656 8.78466 7.62478C7.40435 5.933 5.49099 4.75945 3.35732 4.29596L3.19487 4.57574C3.96864 5.32653 4.58259 6.22606 4.9998 7.22022C5.417 8.21439 5.62885 9.28265 5.62261 10.3608C5.62261 17.0303 0 21.7685 0 29.4217C0 36.4703 4.92768 43.6542 19.1963 43.6542C31.9126 43.6542 38.6182 37.4269 38.6182 30.8025C38.6092 25.1168 34.5389 20.3064 26.66 19.5573Z" fill="url(#paint0_linear_177_1267)"/>
<path d="M82.5251 42.517L65.6212 20.7215V40.369L69.0688 41.1903V42.0928H61.208V41.1903L64.0238 40.369V18.9616C63.3384 18.3228 62.5132 17.853 61.6141 17.5898C61.2711 17.5176 60.8109 17.4364 60.8109 17.4364V16.5339H67.4804L81.9204 35.306V18.2757L78.4729 17.4454V16.5429H86.3337V17.4454L83.5179 18.2757V37.7608C83.5179 39.5658 83.6442 42.1921 83.6713 42.526L82.5251 42.517ZM117.867 28.6365C117.867 37.6615 111.55 42.8961 104.646 42.8961C97.7414 42.8961 91.3968 37.5893 91.3968 29.3404C91.3968 21.0915 97.7143 15.7307 104.582 15.7307C106.311 15.6736 108.034 15.9659 109.647 16.59C111.26 17.2141 112.731 18.1572 113.971 19.363C115.212 20.5687 116.196 22.0122 116.865 23.6072C117.535 25.2021 117.875 26.9158 117.867 28.6455V28.6365ZM113.472 29.9902C113.472 23.3568 109.501 16.922 104.104 16.922C98.3641 16.922 95.7739 22.4724 95.7739 28.4109C95.7739 34.3493 99.05 41.7138 105.214 41.7138C111.008 41.7138 113.472 35.8475 113.472 29.9902ZM123.327 18.2577L120.62 17.4274V16.5249H130.99V17.4274L127.741 18.2577L134.897 37.7698L142.054 18.2577L138.805 17.4274V16.5249H146.477V17.4274L143.769 18.2577L134.807 42.5802H132.515L123.327 18.2577ZM184.607 29.0426H182.965V17.8696C188.38 17.8696 191.602 19.1151 191.602 23.5373C191.575 26.8224 188.759 29.0426 184.607 29.0426ZM231.005 41.1903L234.615 40.369V18.2667L231.005 17.4364V16.5339H242.259V17.4364L238.649 18.2667V40.369L242.259 41.1903V42.0928H231.005V41.1903ZM249.155 35.0713H249.868L252.259 40.5766C253.681 41.2908 255.244 41.6792 256.835 41.7138C259.94 41.7138 262.773 39.9088 262.773 36.6778C262.773 34.223 261.185 32.7609 258.613 31.4162L256.068 30.0985C253.026 28.5192 249.985 26.2809 249.985 22.6799C249.985 18.7631 252.692 15.7397 258.487 15.7397C260.523 15.7604 262.543 16.0921 264.479 16.7234L265.084 22.6438H264.317L262.106 17.8967C260.961 17.2574 259.671 16.9218 258.36 16.922C255.427 16.922 253.432 18.727 253.432 21.2269C253.432 23.4922 254.94 24.9182 257.521 26.2539L260.535 27.8242C264.651 29.9541 266.6 31.9306 266.6 35.5858C266.6 40.0983 262.367 42.9051 257.106 42.9051C254.629 42.9428 252.162 42.5739 249.804 41.813L249.155 35.0713ZM144.825 41.1903L147.722 40.369L156.666 16.5158L159.653 15.7487L168.886 40.36L171.783 41.1903V42.0928H160.826V41.1903L164.536 40.36L161.918 33.2844H152.081L149.482 40.36L153.191 41.1813V42.0838H144.825V41.1903ZM152.767 31.3981H161.278L157.054 19.9905L152.767 31.3981ZM189.77 29.5931C190.672 29.3675 195.735 28.0769 195.735 23.2756C195.735 19.4219 192.784 16.4346 185.51 16.4346C180.997 16.4346 176.485 16.5339 175.916 16.5519V17.4544L178.886 18.2847V40.36L175.916 41.1903V42.0928H186.421V41.1903L182.974 40.36V30.3783H185.943L193.533 42.1109H200.257V41.2084L196.854 40.3059L189.77 29.5931ZM211.953 17.8606V40.369L208.343 41.1903V42.0928H219.598V41.1903L215.988 40.369V17.8696H222.061L224.065 22.1836H224.841L224.264 16.561H203.677L203.1 22.1836H203.876L205.861 17.9147L211.953 17.8606ZM19.3678 34.1057L22.9779 0H15.4871L19.0971 34.1057H19.3678Z" fill="#0460A9"/>
<defs>
<linearGradient id="paint0_linear_177_1267" x1="-0.00902505" y1="23.9706" x2="38.6092" y2="23.9706" gradientUnits="userSpaceOnUse">
<stop offset="0.3" stop-color="#E74A21"/>
<stop offset="0.7" stop-color="#EC9A1E"/>
</linearGradient>
</defs>
</svg>
