<svg width="15" height="18" viewBox="0 0 15 18" fill="none" xmlns="http://www.w3.org/2000/svg">
<path fill-rule="evenodd" clip-rule="evenodd" d="M14.0346 0H13.91C2.28364 1.06364 0.830343 8.71363 4.60892 11.2091C3.94456 13.9909 4.60892 13.9909 4.60892 13.9909C4.69197 13.1727 4.85806 12.3136 5.06567 11.4955C6.51897 6.01363 10.2145 1.26818 13.91 0.0818182C14.0346 0.122727 14.0346 0.122727 14.0346 0Z" fill="#C5203F"/>
<path fill-rule="evenodd" clip-rule="evenodd" d="M13.2873 1.92278V1.80005L13.1627 1.92278C12.2492 3.76368 11.9171 6.34096 11.2527 8.26368C10.3392 10.5137 8.88589 12.15 6.56061 11.9046V17.5091C6.56061 17.5091 0.415229 14.8091 0.415229 10.5137V2.45459L5.4395 2.00459C5.56406 2.00459 5.56406 2.00459 5.56406 1.88187H0V10.4728C0 15.3 6.60214 18 6.60214 18C6.60214 18 13.2873 15.2591 13.2873 10.5137V1.92278Z" fill="#C5203F"/>
</svg>
